<svg width="35" height="36" viewBox="0 0 35 36" fill="none" xmlns="http://www.w3.org/2000/svg">
<path d="M10.5729 18C10.5729 17.3959 11.0626 16.9063 11.6667 16.9063H23.3333C23.9374 16.9063 24.4271 17.3959 24.4271 18C24.4271 18.6041 23.9374 19.0938 23.3333 19.0938H11.6667C11.0626 19.0938 10.5729 18.6041 10.5729 18Z" fill="black"/>
<path d="M14.5833 21.2813C13.9793 21.2813 13.4896 21.7709 13.4896 22.375C13.4896 22.9791 13.9793 23.4688 14.5833 23.4688H20.4167C21.0207 23.4688 21.5104 22.9791 21.5104 22.375C21.5104 21.7709 21.0207 21.2813 20.4167 21.2813H14.5833Z" fill="black"/>
<path fill-rule="evenodd" clip-rule="evenodd" d="M21.3858 3.89672C21.9261 3.62658 22.5831 3.84557 22.8533 4.38586L25.4977 9.67465C26.1211 9.70635 26.6897 9.75478 27.2049 9.82876C28.7445 10.0498 30.0188 10.525 30.9244 11.6453C31.83 12.7655 32.0277 14.111 31.9213 15.6628C31.8181 17.1666 31.4117 19.0629 30.9037 21.4337L30.2453 24.506C29.9027 26.1049 29.6248 27.402 29.2751 28.4152C28.9106 29.4712 28.4301 30.3395 27.6096 31.0029C26.7891 31.6662 25.8394 31.954 24.7305 32.0891C23.6664 32.2188 22.3399 32.2188 20.7047 32.2188H14.2954C12.6601 32.2188 11.3336 32.2188 10.2696 32.0891C9.16071 31.954 8.21096 31.6662 7.39044 31.0029C6.56992 30.3395 6.0895 29.4712 5.72502 28.4152C5.37528 27.402 5.09736 26.1049 4.75474 24.5059L4.09641 21.4337C3.58837 19.063 3.18197 17.1666 3.07882 15.6628C2.97238 14.111 3.17006 12.7655 4.07566 11.6453C4.98126 10.525 6.25553 10.0498 7.79512 9.82876C8.31032 9.75478 8.87887 9.70636 9.50231 9.67465L12.1467 4.38586C12.4168 3.84557 13.0738 3.62658 13.6141 3.89672C14.1544 4.16687 14.3734 4.82385 14.1033 5.36414L11.9765 9.61759C12.5067 9.61457 13.0648 9.61458 13.6512 9.61458H21.3489C21.9352 9.61458 22.4933 9.61457 23.0234 9.61759L20.8967 5.36414C20.6266 4.82385 20.8456 4.16687 21.3858 3.89672ZM8.35932 11.9606L7.7717 13.1359C7.50156 13.6762 7.72056 14.3331 8.26084 14.6033C8.80113 14.8734 9.45812 14.6544 9.72826 14.1141L10.8763 11.818C11.7082 11.8026 12.6553 11.8021 13.7403 11.8021H21.2597C22.3447 11.8021 23.2918 11.8026 24.1236 11.818L25.2717 14.1141C25.5418 14.6544 26.1988 14.8734 26.7391 14.6033C27.2794 14.3331 27.4984 13.6762 27.2283 13.1359L26.6406 11.9606C26.727 11.9711 26.8114 11.9822 26.8941 11.9941C28.1831 12.1791 28.8156 12.5162 29.2233 13.0205C29.631 13.5248 29.828 14.2139 29.7389 15.5131C29.6477 16.8418 29.277 18.5845 28.746 21.0625L28.121 23.9792C27.7602 25.6629 27.5084 26.8289 27.2073 27.7015C26.9158 28.5458 26.6171 28.9923 26.2344 29.3017C25.8517 29.6111 25.3525 29.8097 24.4659 29.9177C23.5495 30.0294 22.3567 30.0313 20.6347 30.0313H14.3653C12.6434 30.0313 11.4505 30.0294 10.5342 29.9177C9.64759 29.8097 9.14839 29.6111 8.76567 29.3017C8.38296 28.9923 8.08423 28.5458 7.79281 27.7015C7.49163 26.8289 7.23984 25.6629 6.87904 23.9792L6.25404 21.0625C5.72303 18.5845 5.35233 16.8418 5.26119 15.5131C5.17207 14.2139 5.3691 13.5248 5.7768 13.0205C6.1845 12.5162 6.81702 12.1791 8.10602 11.9941C8.18861 11.9822 8.27302 11.9711 8.35932 11.9606Z" fill="black"/>
</svg>
