<svg width="35" height="36" viewBox="0 0 35 36" fill="none" xmlns="http://www.w3.org/2000/svg">
<path fill-rule="evenodd" clip-rule="evenodd" d="M16.7712 4.51041C9.72377 4.51041 4.01074 10.2234 4.01074 17.2708C4.01074 24.3182 9.72377 30.0312 16.7712 30.0312C23.8185 30.0312 29.5316 24.3182 29.5316 17.2708C29.5316 10.2234 23.8185 4.51041 16.7712 4.51041ZM1.82324 17.2708C1.82324 9.01532 8.51565 2.32291 16.7712 2.32291C25.0267 2.32291 31.7191 9.01532 31.7191 17.2708C31.7191 21.0049 30.3499 24.4192 28.0862 27.039L32.8571 31.8099C33.2842 32.2371 33.2842 32.9296 32.8571 33.3567C32.4299 33.7839 31.7374 33.7839 31.3103 33.3567L26.5394 28.5858C23.9195 30.8496 20.5052 32.2187 16.7712 32.2187C8.51565 32.2187 1.82324 25.5263 1.82324 17.2708Z" fill="black"/>
</svg>
