<svg width="35" height="36" viewBox="0 0 35 36" fill="none" xmlns="http://www.w3.org/2000/svg">
<path fill-rule="evenodd" clip-rule="evenodd" d="M17.5003 2.32291C13.6746 2.32291 10.5732 5.42428 10.5732 9.25C10.5732 13.0757 13.6746 16.1771 17.5003 16.1771C21.326 16.1771 24.4274 13.0757 24.4274 9.25C24.4274 5.42428 21.326 2.32291 17.5003 2.32291ZM12.7607 9.25C12.7607 6.6324 14.8827 4.51041 17.5003 4.51041C20.1179 4.51041 22.2399 6.6324 22.2399 9.25C22.2399 11.8676 20.1179 13.9896 17.5003 13.9896C14.8827 13.9896 12.7607 11.8676 12.7607 9.25Z" fill="black"/>
<path fill-rule="evenodd" clip-rule="evenodd" d="M17.5003 18.3646C14.5263 18.3646 11.78 19.0511 9.73929 20.2172C7.72949 21.3657 6.19824 23.1189 6.19824 25.2917C6.19824 27.4644 7.72949 29.2176 9.73929 30.3661C11.78 31.5322 14.5263 32.2187 17.5003 32.2187C20.4744 32.2187 23.2206 31.5322 25.2614 30.3661C27.2712 29.2176 28.8024 27.4644 28.8024 25.2917C28.8024 23.1189 27.2712 21.3657 25.2614 20.2172C23.2206 19.0511 20.4744 18.3646 17.5003 18.3646ZM8.38574 25.2917C8.38574 24.2427 9.13971 23.0793 10.8246 22.1165C12.4785 21.1714 14.8364 20.5521 17.5003 20.5521C20.1642 20.5521 22.5221 21.1714 24.1761 22.1165C25.8609 23.0793 26.6149 24.2427 26.6149 25.2917C26.6149 26.3406 25.8609 27.504 24.1761 28.4668C22.5221 29.4119 20.1642 30.0312 17.5003 30.0312C14.8364 30.0312 12.4785 29.4119 10.8246 28.4668C9.13971 27.504 8.38574 26.3406 8.38574 25.2917Z" fill="black"/>
</svg>
